<svg width="16" height="16" viewBox="0 0 16 16" fill="none" xmlns="http://www.w3.org/2000/svg">
<path d="M4.98828 12.2333L7.05495 13.8333C7.32161 14.1 7.92161 14.2333 8.32161 14.2333H10.8549C11.6549 14.2333 12.5216 13.6333 12.7216 12.8333L14.3216 7.96667C14.6549 7.03333 14.0549 6.23333 13.0549 6.23333H10.3883C9.98828 6.23333 9.65495 5.9 9.72161 5.43333L10.0549 3.3C10.1883 2.7 9.78828 2.03333 9.18828 1.83333C8.65495 1.63333 7.98828 1.9 7.72161 2.3L4.98828 6.36667" stroke="#B3B3B3" stroke-width="1.5" stroke-miterlimit="10"/>
<path d="M1.58594 12.2333V5.69999C1.58594 4.76665 1.98594 4.43332 2.91927 4.43332H3.58594C4.51927 4.43332 4.91927 4.76665 4.91927 5.69999V12.2333C4.91927 13.1667 4.51927 13.5 3.58594 13.5H2.91927C1.98594 13.5 1.58594 13.1667 1.58594 12.2333Z" stroke="#B3B3B3" stroke-width="1.5" stroke-linecap="round" stroke-linejoin="round"/>
</svg>
